<?xml version="1.0" standalone="no"?>
<!DOCTYPE svg PUBLIC "-//W3C//DTD SVG 20010904//EN"
 "http://www.w3.org/TR/2001/REC-SVG-20010904/DTD/svg10.dtd">
<svg version="1.0" xmlns="http://www.w3.org/2000/svg"
 width="1000.000000pt" height="1000.000000pt" viewBox="0 0 1000.000000 1000.000000"
 preserveAspectRatio="xMidYMid meet">
<metadata>
Created by potrace 1.11, written by Peter Selinger 2001-2013
</metadata>
<g transform="translate(0.000000,1000.000000) scale(0.100000,-0.100000)"
fill="#000000" stroke="none">
<path d="M612 9865 c-65 -14 -157 -57 -228 -105 -68 -47 -159 -155 -198 -234
-71 -144 -66 246 -66 -4536 0 -4789 -5 -4391 67 -4539 52 -106 178 -232 284
-284 149 -73 -255 -67 4571 -65 4202 3 4355 4 4403 21 124 46 180 81 265 167
88 87 126 150 167 271 17 52 18 214 18 4429 0 4263 0 4376 -19 4430 -72 210
-212 355 -416 431 l-65 24 -4360 2 c-3647 1 -4370 -1 -4423 -12z m8236 -2220
c84 -36 126 -106 120 -201 -5 -75 -37 -128 -101 -165 l-42 -24 -3935 -3
c-2813 -2 -3948 1 -3979 8 -60 15 -96 42 -128 97 -31 54 -36 139 -10 188 19
38 74 91 107 104 16 6 1390 10 3978 10 3546 1 3956 -1 3990 -14z m-6602 -1617
c82 -33 942 -638 1011 -711 131 -138 169 -339 96 -512 -25 -59 -89 -149 -131
-182 -127 -102 -918 -653 -971 -677 -76 -34 -203 -46 -290 -27 -160 34 -297
158 -350 318 -20 61 -21 81 -21 742 0 649 1 682 20 743 48 157 173 278 333
323 80 23 226 15 303 -17z m6565 -9 c94 -20 159 -101 159 -198 0 -97 -68 -180
-162 -201 -68 -14 -4428 -14 -4496 0 -206 45 -217 341 -15 396 65 17 4433 20
4514 3z m0 -1640 c171 -37 216 -250 76 -363 l-39 -31 -2288 0 -2288 0 -39 31
c-55 45 -83 98 -83 162 0 93 60 174 147 198 65 17 4433 20 4514 3z m8 -1639
c187 -53 206 -310 29 -385 -34 -13 -444 -15 -3983 -15 -3542 0 -3949 2 -3983
16 -144 60 -171 255 -47 350 19 14 50 30 68 34 49 12 7875 12 7916 0z"/>
<path d="M2026 5639 l-26 -20 0 -633 c0 -620 0 -633 20 -651 43 -39 59 -30
497 280 230 163 428 309 440 323 30 36 29 65 -4 101 -25 26 -804 585 -852 611
-29 15 -45 13 -75 -11z"/>
</g>
</svg>
