<?xml version="1.0" standalone="no"?>
<!DOCTYPE svg PUBLIC "-//W3C//DTD SVG 20010904//EN"
 "http://www.w3.org/TR/2001/REC-SVG-20010904/DTD/svg10.dtd">
<svg version="1.0" xmlns="http://www.w3.org/2000/svg"
 width="600.000000pt" height="600.000000pt" viewBox="0 0 600.000000 600.000000"
 preserveAspectRatio="xMidYMid meet">
<metadata>
Created by potrace 1.11, written by Peter Selinger 2001-2013
</metadata>
<g transform="translate(0.000000,600.000000) scale(0.100000,-0.100000)"
fill="#000000" stroke="none">
<path d="M0 3000 l0 -3000 3000 0 3000 0 0 3000 0 3000 -3000 0 -3000 0 0
-3000z m3275 2294 c11 -7 45 -23 75 -38 47 -22 160 -131 736 -708 685 -686
687 -688 746 -810 4 -10 8 -36 8 -58 0 -22 5 -40 10 -40 7 0 10 -388 10 -1145
0 -757 -3 -1145 -10 -1145 -5 0 -10 -24 -10 -54 0 -30 -4 -57 -9 -60 -4 -3
-11 -23 -14 -43 -6 -33 -32 -92 -78 -173 -8 -14 -25 -36 -39 -50 -14 -14 -34
-38 -43 -53 -10 -15 -26 -31 -35 -35 -9 -3 -30 -20 -47 -37 -16 -17 -41 -36
-55 -43 -14 -7 -43 -23 -65 -36 -22 -13 -59 -27 -82 -31 -24 -3 -45 -10 -48
-16 -4 -5 -19 -9 -36 -9 -16 0 -29 -4 -29 -10 0 -7 -427 -10 -1260 -10 -833 0
-1260 3 -1260 10 0 6 -13 10 -29 10 -17 0 -32 4 -36 9 -3 6 -24 13 -48 16 -23
4 -60 18 -82 31 -22 13 -51 29 -65 36 -14 7 -38 26 -55 43 -16 17 -38 34 -47
37 -9 4 -25 20 -35 35 -9 15 -29 39 -43 53 -14 14 -31 36 -39 50 -46 81 -72
140 -78 173 -3 20 -10 40 -14 43 -5 3 -9 30 -9 60 0 30 -4 54 -10 54 -7 0 -10
558 -10 1655 0 1097 3 1655 10 1655 6 0 10 25 10 55 0 30 4 55 9 55 5 0 11 23
15 50 4 28 10 50 14 50 5 0 14 17 21 38 15 42 62 112 93 142 11 10 26 29 32
42 6 12 20 27 32 33 11 5 31 21 44 34 53 50 152 105 207 116 21 4 43 10 48 15
20 16 79 17 825 16 544 -1 761 -4 775 -12z"/>
<path d="M1788 4833 c-38 -6 -116 -78 -141 -132 l-22 -46 0 -1663 c0 -1212 3
-1665 11 -1670 6 -4 14 -17 18 -29 12 -37 101 -109 143 -117 50 -8 2356 -8
2406 0 42 8 131 80 143 117 4 12 12 25 18 29 8 5 12 320 14 1140 l3 1132 -623
623 -623 623 -660 -1 c-363 -1 -672 -4 -687 -6z m1964 -1599 c48 -8 158 -111
158 -148 0 -14 5 -28 10 -31 6 -3 10 -26 10 -50 0 -24 -4 -47 -10 -50 -5 -3
-10 -17 -10 -31 0 -17 -19 -44 -62 -87 l-61 -62 -787 0 -787 0 -61 62 c-43 43
-62 70 -62 87 0 14 -4 28 -10 31 -5 3 -10 26 -10 50 0 24 5 47 10 50 6 3 10
17 10 31 0 31 111 141 148 147 44 7 1474 7 1514 1z m41 -938 c38 -15 117 -102
117 -128 0 -9 5 -20 10 -23 12 -8 13 -112 1 -119 -4 -3 -11 -18 -14 -34 -9
-42 -108 -132 -146 -132 -17 0 -31 -4 -31 -10 0 -7 -250 -10 -730 -10 -480 0
-730 3 -730 10 0 6 -14 10 -31 10 -38 0 -137 90 -146 132 -3 16 -10 31 -14 34
-12 7 -11 111 1 119 6 3 10 14 10 23 0 25 79 112 114 128 46 20 1542 20 1589
0z"/>
</g>
</svg>
